<?xml version="1.0" encoding="UTF-8" standalone="no"?>
<!DOCTYPE svg PUBLIC "-//W3C//DTD SVG 1.1//EN"
 "http://www.w3.org/Graphics/SVG/1.1/DTD/svg11.dtd">
<!-- Generated by graphviz version 2.43.0 (0)
 -->
<!-- Title: %3 Pages: 1 -->
<svg width="1493pt" height="620pt"
 viewBox="0.00 0.00 1493.38 620.00" xmlns="http://www.w3.org/2000/svg" xmlns:xlink="http://www.w3.org/1999/xlink">
<g id="graph0" class="graph" transform="scale(1 1) rotate(0) translate(4 616)">
<title>%3</title>
<polygon fill="white" stroke="transparent" points="-4,4 -4,-616 1489.38,-616 1489.38,4 -4,4"/>
<!-- [root] aws_ebs_volume.disk1 (expand) -->
<g id="node1" class="node">
<title>[root] aws_ebs_volume.disk1 (expand)</title>
<polygon fill="none" stroke="black" points="702.88,-396 525.88,-396 525.88,-360 702.88,-360 702.88,-396"/>
<text text-anchor="middle" x="614.38" y="-374.3" font-family="Times,serif" font-size="14.00">aws_ebs_volume.disk1</text>
</g>
<!-- [root] aws_instance.vm1 (expand) -->
<g id="node2" class="node">
<title>[root] aws_instance.vm1 (expand)</title>
<polygon fill="none" stroke="black" points="655.38,-324 509.38,-324 509.38,-288 655.38,-288 655.38,-324"/>
<text text-anchor="middle" x="582.38" y="-302.3" font-family="Times,serif" font-size="14.00">aws_instance.vm1</text>
</g>
<!-- [root] aws_ebs_volume.disk1 (expand)&#45;&gt;[root] aws_instance.vm1 (expand) -->
<g id="edge1" class="edge">
<title>[root] aws_ebs_volume.disk1 (expand)&#45;&gt;[root] aws_instance.vm1 (expand)</title>
<path fill="none" stroke="black" d="M606.47,-359.7C602.83,-351.73 598.43,-342.1 594.39,-333.26"/>
<polygon fill="black" stroke="black" points="597.54,-331.74 590.2,-324.1 591.18,-334.65 597.54,-331.74"/>
</g>
<!-- [root] aws_security_group.sg1 (expand) -->
<g id="node7" class="node">
<title>[root] aws_security_group.sg1 (expand)</title>
<polygon fill="none" stroke="black" points="864.38,-252 676.38,-252 676.38,-216 864.38,-216 864.38,-252"/>
<text text-anchor="middle" x="770.38" y="-230.3" font-family="Times,serif" font-size="14.00">aws_security_group.sg1</text>
</g>
<!-- [root] aws_instance.vm1 (expand)&#45;&gt;[root] aws_security_group.sg1 (expand) -->
<g id="edge2" class="edge">
<title>[root] aws_instance.vm1 (expand)&#45;&gt;[root] aws_security_group.sg1 (expand)</title>
<path fill="none" stroke="black" d="M628.37,-287.88C654.53,-278.14 687.47,-265.87 715.03,-255.61"/>
<polygon fill="black" stroke="black" points="716.39,-258.84 724.54,-252.07 713.95,-252.28 716.39,-258.84"/>
</g>
<!-- [root] aws_subnet.subnet1 (expand) -->
<g id="node8" class="node">
<title>[root] aws_subnet.subnet1 (expand)</title>
<polygon fill="none" stroke="black" points="658.38,-252 496.38,-252 496.38,-216 658.38,-216 658.38,-252"/>
<text text-anchor="middle" x="577.38" y="-230.3" font-family="Times,serif" font-size="14.00">aws_subnet.subnet1</text>
</g>
<!-- [root] aws_instance.vm1 (expand)&#45;&gt;[root] aws_subnet.subnet1 (expand) -->
<g id="edge3" class="edge">
<title>[root] aws_instance.vm1 (expand)&#45;&gt;[root] aws_subnet.subnet1 (expand)</title>
<path fill="none" stroke="black" d="M581.15,-287.7C580.59,-279.98 579.93,-270.71 579.32,-262.11"/>
<polygon fill="black" stroke="black" points="582.81,-261.83 578.6,-252.1 575.82,-262.33 582.81,-261.83"/>
</g>
<!-- [root] aws_instance.vm2 (expand) -->
<g id="node3" class="node">
<title>[root] aws_instance.vm2 (expand)</title>
<polygon fill="none" stroke="black" points="1485.38,-324 1339.38,-324 1339.38,-288 1485.38,-288 1485.38,-324"/>
<text text-anchor="middle" x="1412.38" y="-302.3" font-family="Times,serif" font-size="14.00">aws_instance.vm2</text>
</g>
<!-- [root] aws_instance.vm2 (expand)&#45;&gt;[root] aws_security_group.sg1 (expand) -->
<g id="edge4" class="edge">
<title>[root] aws_instance.vm2 (expand)&#45;&gt;[root] aws_security_group.sg1 (expand)</title>
<path fill="none" stroke="black" d="M1339.14,-289.4C1336.18,-288.9 1333.26,-288.43 1330.38,-288 1172.2,-264.19 987.16,-249.15 874.41,-241.41"/>
<polygon fill="black" stroke="black" points="874.62,-237.91 864.4,-240.73 874.14,-244.9 874.62,-237.91"/>
</g>
<!-- [root] aws_instance.vm2 (expand)&#45;&gt;[root] aws_subnet.subnet1 (expand) -->
<g id="edge5" class="edge">
<title>[root] aws_instance.vm2 (expand)&#45;&gt;[root] aws_subnet.subnet1 (expand)</title>
<path fill="none" stroke="black" d="M1339.16,-289.25C1336.2,-288.8 1333.27,-288.38 1330.38,-288 1041.03,-250.37 962.11,-286.63 668.82,-252.07"/>
<polygon fill="black" stroke="black" points="669.09,-248.58 658.74,-250.87 668.26,-255.53 669.09,-248.58"/>
</g>
<!-- [root] aws_internet_gateway.gw1 (expand) -->
<g id="node4" class="node">
<title>[root] aws_internet_gateway.gw1 (expand)</title>
<polygon fill="none" stroke="black" points="474.38,-252 266.38,-252 266.38,-216 474.38,-216 474.38,-252"/>
<text text-anchor="middle" x="370.38" y="-230.3" font-family="Times,serif" font-size="14.00">aws_internet_gateway.gw1</text>
</g>
<!-- [root] aws_vpc.vpc1 (expand) -->
<g id="node10" class="node">
<title>[root] aws_vpc.vpc1 (expand)</title>
<polygon fill="none" stroke="black" points="571.38,-180 457.38,-180 457.38,-144 571.38,-144 571.38,-180"/>
<text text-anchor="middle" x="514.38" y="-158.3" font-family="Times,serif" font-size="14.00">aws_vpc.vpc1</text>
</g>
<!-- [root] aws_internet_gateway.gw1 (expand)&#45;&gt;[root] aws_vpc.vpc1 (expand) -->
<g id="edge6" class="edge">
<title>[root] aws_internet_gateway.gw1 (expand)&#45;&gt;[root] aws_vpc.vpc1 (expand)</title>
<path fill="none" stroke="black" d="M405.61,-215.88C424.96,-206.47 449.15,-194.71 469.81,-184.67"/>
<polygon fill="black" stroke="black" points="471.56,-187.71 479.02,-180.19 468.5,-181.41 471.56,-187.71"/>
</g>
<!-- [root] aws_route_table.route1 (expand) -->
<g id="node5" class="node">
<title>[root] aws_route_table.route1 (expand)</title>
<polygon fill="none" stroke="black" points="453.38,-324 269.38,-324 269.38,-288 453.38,-288 453.38,-324"/>
<text text-anchor="middle" x="361.38" y="-302.3" font-family="Times,serif" font-size="14.00">aws_route_table.route1</text>
</g>
<!-- [root] aws_route_table.route1 (expand)&#45;&gt;[root] aws_internet_gateway.gw1 (expand) -->
<g id="edge7" class="edge">
<title>[root] aws_route_table.route1 (expand)&#45;&gt;[root] aws_internet_gateway.gw1 (expand)</title>
<path fill="none" stroke="black" d="M363.61,-287.7C364.6,-279.98 365.79,-270.71 366.9,-262.11"/>
<polygon fill="black" stroke="black" points="370.38,-262.47 368.18,-252.1 363.44,-261.58 370.38,-262.47"/>
</g>
<!-- [root] aws_route_table_association.assc1 (expand) -->
<g id="node6" class="node">
<title>[root] aws_route_table_association.assc1 (expand)</title>
<polygon fill="none" stroke="black" points="507.88,-396 244.88,-396 244.88,-360 507.88,-360 507.88,-396"/>
<text text-anchor="middle" x="376.38" y="-374.3" font-family="Times,serif" font-size="14.00">aws_route_table_association.assc1</text>
</g>
<!-- [root] aws_route_table_association.assc1 (expand)&#45;&gt;[root] aws_route_table.route1 (expand) -->
<g id="edge8" class="edge">
<title>[root] aws_route_table_association.assc1 (expand)&#45;&gt;[root] aws_route_table.route1 (expand)</title>
<path fill="none" stroke="black" d="M372.67,-359.7C371.02,-351.98 369.03,-342.71 367.19,-334.11"/>
<polygon fill="black" stroke="black" points="370.56,-333.15 365.05,-324.1 363.72,-334.62 370.56,-333.15"/>
</g>
<!-- [root] aws_route_table_association.assc1 (expand)&#45;&gt;[root] aws_subnet.subnet1 (expand) -->
<g id="edge9" class="edge">
<title>[root] aws_route_table_association.assc1 (expand)&#45;&gt;[root] aws_subnet.subnet1 (expand)</title>
<path fill="none" stroke="black" d="M407.64,-359.83C424.42,-350.1 445.14,-337.25 462.38,-324 480.83,-309.82 482.3,-302.64 500.38,-288 513.42,-277.44 528.48,-266.77 541.81,-257.8"/>
<polygon fill="black" stroke="black" points="543.89,-260.62 550.27,-252.17 540.01,-254.79 543.89,-260.62"/>
</g>
<!-- [root] aws_security_group.sg1 (expand)&#45;&gt;[root] aws_vpc.vpc1 (expand) -->
<g id="edge10" class="edge">
<title>[root] aws_security_group.sg1 (expand)&#45;&gt;[root] aws_vpc.vpc1 (expand)</title>
<path fill="none" stroke="black" d="M708.08,-215.97C669.75,-205.48 620.62,-192.05 581.43,-181.33"/>
<polygon fill="black" stroke="black" points="582.26,-177.93 571.69,-178.67 580.42,-184.69 582.26,-177.93"/>
</g>
<!-- [root] aws_subnet.subnet1 (expand)&#45;&gt;[root] aws_vpc.vpc1 (expand) -->
<g id="edge11" class="edge">
<title>[root] aws_subnet.subnet1 (expand)&#45;&gt;[root] aws_vpc.vpc1 (expand)</title>
<path fill="none" stroke="black" d="M561.81,-215.7C554.18,-207.22 544.86,-196.86 536.51,-187.58"/>
<polygon fill="black" stroke="black" points="539.07,-185.2 529.78,-180.1 533.86,-189.88 539.07,-185.2"/>
</g>
<!-- [root] var.cidr&#45;sub -->
<g id="node17" class="node">
<title>[root] var.cidr&#45;sub</title>
<polygon fill="none" stroke="black" points="684.88,-180 589.88,-180 589.88,-144 690.88,-144 690.88,-174 684.88,-180"/>
<polyline fill="none" stroke="black" points="684.88,-180 684.88,-174 "/>
<polyline fill="none" stroke="black" points="690.88,-174 684.88,-174 "/>
<text text-anchor="middle" x="640.38" y="-158.3" font-family="Times,serif" font-size="14.00">var.cidr&#45;sub</text>
</g>
<!-- [root] aws_subnet.subnet1 (expand)&#45;&gt;[root] var.cidr&#45;sub -->
<g id="edge12" class="edge">
<title>[root] aws_subnet.subnet1 (expand)&#45;&gt;[root] var.cidr&#45;sub</title>
<path fill="none" stroke="black" d="M592.95,-215.7C600.58,-207.22 609.9,-196.86 618.26,-187.58"/>
<polygon fill="black" stroke="black" points="620.9,-189.88 624.99,-180.1 615.7,-185.2 620.9,-189.88"/>
</g>
<!-- [root] aws_volume_attachment.ebs&#45;att (expand) -->
<g id="node9" class="node">
<title>[root] aws_volume_attachment.ebs&#45;att (expand)</title>
<polygon fill="none" stroke="black" points="736.88,-468 491.88,-468 491.88,-432 736.88,-432 736.88,-468"/>
<text text-anchor="middle" x="614.38" y="-446.3" font-family="Times,serif" font-size="14.00">aws_volume_attachment.ebs&#45;att</text>
</g>
<!-- [root] aws_volume_attachment.ebs&#45;att (expand)&#45;&gt;[root] aws_ebs_volume.disk1 (expand) -->
<g id="edge13" class="edge">
<title>[root] aws_volume_attachment.ebs&#45;att (expand)&#45;&gt;[root] aws_ebs_volume.disk1 (expand)</title>
<path fill="none" stroke="black" d="M614.38,-431.7C614.38,-423.98 614.38,-414.71 614.38,-406.11"/>
<polygon fill="black" stroke="black" points="617.88,-406.1 614.38,-396.1 610.88,-406.1 617.88,-406.1"/>
</g>
<!-- [root] provider[&quot;registry.terraform.io/hashicorp/aws&quot;] -->
<g id="node13" class="node">
<title>[root] provider[&quot;registry.terraform.io/hashicorp/aws&quot;]</title>
<polygon fill="none" stroke="black" points="325.38,-108 0.12,-90 325.38,-72 650.65,-90 325.38,-108"/>
<text text-anchor="middle" x="325.38" y="-86.3" font-family="Times,serif" font-size="14.00">provider[&quot;registry.terraform.io/hashicorp/aws&quot;]</text>
</g>
<!-- [root] aws_vpc.vpc1 (expand)&#45;&gt;[root] provider[&quot;registry.terraform.io/hashicorp/aws&quot;] -->
<g id="edge14" class="edge">
<title>[root] aws_vpc.vpc1 (expand)&#45;&gt;[root] provider[&quot;registry.terraform.io/hashicorp/aws&quot;]</title>
<path fill="none" stroke="black" d="M468.15,-143.88C439.87,-133.4 403.71,-120.01 374.86,-109.33"/>
<polygon fill="black" stroke="black" points="375.97,-106 365.38,-105.81 373.54,-112.57 375.97,-106"/>
</g>
<!-- [root] var.cidr -->
<g id="node16" class="node">
<title>[root] var.cidr</title>
<polygon fill="none" stroke="black" points="733.88,-108 668.88,-108 668.88,-72 739.88,-72 739.88,-102 733.88,-108"/>
<polyline fill="none" stroke="black" points="733.88,-108 733.88,-102 "/>
<polyline fill="none" stroke="black" points="739.88,-102 733.88,-102 "/>
<text text-anchor="middle" x="704.38" y="-86.3" font-family="Times,serif" font-size="14.00">var.cidr</text>
</g>
<!-- [root] aws_vpc.vpc1 (expand)&#45;&gt;[root] var.cidr -->
<g id="edge15" class="edge">
<title>[root] aws_vpc.vpc1 (expand)&#45;&gt;[root] var.cidr</title>
<path fill="none" stroke="black" d="M561.45,-143.94C587.62,-134.42 621.01,-122.22 658.83,-108.19"/>
<polygon fill="black" stroke="black" points="660.38,-111.35 668.53,-104.58 657.94,-104.78 660.38,-111.35"/>
</g>
<!-- [root] null_resource.exec (expand) -->
<g id="node11" class="node">
<title>[root] null_resource.exec (expand)</title>
<polygon fill="none" stroke="black" points="1020.88,-396 871.88,-396 871.88,-360 1020.88,-360 1020.88,-396"/>
<text text-anchor="middle" x="946.38" y="-374.3" font-family="Times,serif" font-size="14.00">null_resource.exec</text>
</g>
<!-- [root] null_resource.exec (expand)&#45;&gt;[root] aws_instance.vm1 (expand) -->
<g id="edge16" class="edge">
<title>[root] null_resource.exec (expand)&#45;&gt;[root] aws_instance.vm1 (expand)</title>
<path fill="none" stroke="black" d="M871.79,-363.37C817.35,-353.34 741.49,-339.16 665.87,-324.28"/>
<polygon fill="black" stroke="black" points="666.17,-320.77 655.69,-322.27 664.82,-327.64 666.17,-320.77"/>
</g>
<!-- [root] provider[&quot;registry.terraform.io/hashicorp/null&quot;] -->
<g id="node14" class="node">
<title>[root] provider[&quot;registry.terraform.io/hashicorp/null&quot;]</title>
<polygon fill="none" stroke="black" points="997.38,-324 672.96,-306 997.38,-288 1321.81,-306 997.38,-324"/>
<text text-anchor="middle" x="997.38" y="-302.3" font-family="Times,serif" font-size="14.00">provider[&quot;registry.terraform.io/hashicorp/null&quot;]</text>
</g>
<!-- [root] null_resource.exec (expand)&#45;&gt;[root] provider[&quot;registry.terraform.io/hashicorp/null&quot;] -->
<g id="edge17" class="edge">
<title>[root] null_resource.exec (expand)&#45;&gt;[root] provider[&quot;registry.terraform.io/hashicorp/null&quot;]</title>
<path fill="none" stroke="black" d="M958.99,-359.7C965.13,-351.27 972.63,-340.97 979.36,-331.73"/>
<polygon fill="black" stroke="black" points="982.21,-333.77 985.27,-323.62 976.55,-329.64 982.21,-333.77"/>
</g>
<!-- [root] null_resource.test (expand) -->
<g id="node12" class="node">
<title>[root] null_resource.test (expand)</title>
<polygon fill="none" stroke="black" points="1183.88,-396 1038.88,-396 1038.88,-360 1183.88,-360 1183.88,-396"/>
<text text-anchor="middle" x="1111.38" y="-374.3" font-family="Times,serif" font-size="14.00">null_resource.test</text>
</g>
<!-- [root] null_resource.test (expand)&#45;&gt;[root] aws_instance.vm2 (expand) -->
<g id="edge18" class="edge">
<title>[root] null_resource.test (expand)&#45;&gt;[root] aws_instance.vm2 (expand)</title>
<path fill="none" stroke="black" d="M1184.25,-360.05C1228.01,-349.88 1283.84,-336.89 1329.31,-326.32"/>
<polygon fill="black" stroke="black" points="1330.2,-329.71 1339.15,-324.03 1328.61,-322.89 1330.2,-329.71"/>
</g>
<!-- [root] null_resource.test (expand)&#45;&gt;[root] provider[&quot;registry.terraform.io/hashicorp/null&quot;] -->
<g id="edge19" class="edge">
<title>[root] null_resource.test (expand)&#45;&gt;[root] provider[&quot;registry.terraform.io/hashicorp/null&quot;]</title>
<path fill="none" stroke="black" d="M1083.49,-359.88C1067.92,-350.31 1048.39,-338.32 1031.86,-328.17"/>
<polygon fill="black" stroke="black" points="1033.39,-325 1023.03,-322.75 1029.72,-330.97 1033.39,-325"/>
</g>
<!-- [root] var.access -->
<g id="node15" class="node">
<title>[root] var.access</title>
<polygon fill="none" stroke="black" points="256.88,-36 173.88,-36 173.88,0 262.88,0 262.88,-30 256.88,-36"/>
<polyline fill="none" stroke="black" points="256.88,-36 256.88,-30 "/>
<polyline fill="none" stroke="black" points="262.88,-30 256.88,-30 "/>
<text text-anchor="middle" x="218.38" y="-14.3" font-family="Times,serif" font-size="14.00">var.access</text>
</g>
<!-- [root] provider[&quot;registry.terraform.io/hashicorp/aws&quot;]&#45;&gt;[root] var.access -->
<g id="edge23" class="edge">
<title>[root] provider[&quot;registry.terraform.io/hashicorp/aws&quot;]&#45;&gt;[root] var.access</title>
<path fill="none" stroke="black" d="M301.37,-73.29C287.12,-63.97 268.82,-52 253.03,-41.67"/>
<polygon fill="black" stroke="black" points="254.85,-38.67 244.56,-36.13 251.01,-44.53 254.85,-38.67"/>
</g>
<!-- [root] var.region -->
<g id="node18" class="node">
<title>[root] var.region</title>
<polygon fill="none" stroke="black" points="363.88,-36 280.88,-36 280.88,0 369.88,0 369.88,-30 363.88,-36"/>
<polyline fill="none" stroke="black" points="363.88,-36 363.88,-30 "/>
<polyline fill="none" stroke="black" points="369.88,-30 363.88,-30 "/>
<text text-anchor="middle" x="325.38" y="-14.3" font-family="Times,serif" font-size="14.00">var.region</text>
</g>
<!-- [root] provider[&quot;registry.terraform.io/hashicorp/aws&quot;]&#45;&gt;[root] var.region -->
<g id="edge24" class="edge">
<title>[root] provider[&quot;registry.terraform.io/hashicorp/aws&quot;]&#45;&gt;[root] var.region</title>
<path fill="none" stroke="black" d="M325.38,-71.7C325.38,-63.98 325.38,-54.71 325.38,-46.11"/>
<polygon fill="black" stroke="black" points="328.88,-46.1 325.38,-36.1 321.88,-46.1 328.88,-46.1"/>
</g>
<!-- [root] var.secret -->
<g id="node19" class="node">
<title>[root] var.secret</title>
<polygon fill="none" stroke="black" points="468.88,-36 387.88,-36 387.88,0 474.88,0 474.88,-30 468.88,-36"/>
<polyline fill="none" stroke="black" points="468.88,-36 468.88,-30 "/>
<polyline fill="none" stroke="black" points="474.88,-30 468.88,-30 "/>
<text text-anchor="middle" x="431.38" y="-14.3" font-family="Times,serif" font-size="14.00">var.secret</text>
</g>
<!-- [root] provider[&quot;registry.terraform.io/hashicorp/aws&quot;]&#45;&gt;[root] var.secret -->
<g id="edge25" class="edge">
<title>[root] provider[&quot;registry.terraform.io/hashicorp/aws&quot;]&#45;&gt;[root] var.secret</title>
<path fill="none" stroke="black" d="M349.17,-73.29C363.28,-63.97 381.41,-52 397.05,-41.67"/>
<polygon fill="black" stroke="black" points="399.03,-44.56 405.45,-36.13 395.17,-38.72 399.03,-44.56"/>
</g>
<!-- [root] provider[&quot;registry.terraform.io/hashicorp/aws&quot;] (close) -->
<g id="node20" class="node">
<title>[root] provider[&quot;registry.terraform.io/hashicorp/aws&quot;] (close)</title>
<ellipse fill="none" stroke="black" cx="670.38" cy="-522" rx="291.65" ry="18"/>
<text text-anchor="middle" x="670.38" y="-518.3" font-family="Times,serif" font-size="14.00">[root] provider[&quot;registry.terraform.io/hashicorp/aws&quot;] (close)</text>
</g>
<!-- [root] provider[&quot;registry.terraform.io/hashicorp/aws&quot;] (close)&#45;&gt;[root] aws_instance.vm2 (expand) -->
<g id="edge20" class="edge">
<title>[root] provider[&quot;registry.terraform.io/hashicorp/aws&quot;] (close)&#45;&gt;[root] aws_instance.vm2 (expand)</title>
<path fill="none" stroke="black" d="M883.8,-509.7C1075.12,-498.73 1328.6,-481.77 1347.38,-468 1390.53,-436.37 1405.09,-371.21 1409.97,-334.22"/>
<polygon fill="black" stroke="black" points="1413.46,-334.49 1411.14,-324.15 1406.51,-333.67 1413.46,-334.49"/>
</g>
<!-- [root] provider[&quot;registry.terraform.io/hashicorp/aws&quot;] (close)&#45;&gt;[root] aws_route_table_association.assc1 (expand) -->
<g id="edge21" class="edge">
<title>[root] provider[&quot;registry.terraform.io/hashicorp/aws&quot;] (close)&#45;&gt;[root] aws_route_table_association.assc1 (expand)</title>
<path fill="none" stroke="black" d="M584.67,-504.68C551.82,-496.4 514.73,-484.52 483.38,-468 451.35,-451.12 420.15,-423.5 399.79,-403.51"/>
<polygon fill="black" stroke="black" points="402.08,-400.85 392.54,-396.25 397.13,-405.8 402.08,-400.85"/>
</g>
<!-- [root] provider[&quot;registry.terraform.io/hashicorp/aws&quot;] (close)&#45;&gt;[root] aws_volume_attachment.ebs&#45;att (expand) -->
<g id="edge22" class="edge">
<title>[root] provider[&quot;registry.terraform.io/hashicorp/aws&quot;] (close)&#45;&gt;[root] aws_volume_attachment.ebs&#45;att (expand)</title>
<path fill="none" stroke="black" d="M656.54,-503.7C649.89,-495.39 641.8,-485.28 634.49,-476.14"/>
<polygon fill="black" stroke="black" points="637.05,-473.73 628.07,-468.1 631.58,-478.1 637.05,-473.73"/>
</g>
<!-- [root] provider[&quot;registry.terraform.io/hashicorp/null&quot;] (close) -->
<g id="node21" class="node">
<title>[root] provider[&quot;registry.terraform.io/hashicorp/null&quot;] (close)</title>
<ellipse fill="none" stroke="black" cx="1046.38" cy="-450" rx="291.65" ry="18"/>
<text text-anchor="middle" x="1046.38" y="-446.3" font-family="Times,serif" font-size="14.00">[root] provider[&quot;registry.terraform.io/hashicorp/null&quot;] (close)</text>
</g>
<!-- [root] provider[&quot;registry.terraform.io/hashicorp/null&quot;] (close)&#45;&gt;[root] null_resource.exec (expand) -->
<g id="edge26" class="edge">
<title>[root] provider[&quot;registry.terraform.io/hashicorp/null&quot;] (close)&#45;&gt;[root] null_resource.exec (expand)</title>
<path fill="none" stroke="black" d="M1022.17,-432.05C1009.25,-423.01 993.16,-411.74 979.13,-401.93"/>
<polygon fill="black" stroke="black" points="980.91,-398.9 970.71,-396.03 976.9,-404.63 980.91,-398.9"/>
</g>
<!-- [root] provider[&quot;registry.terraform.io/hashicorp/null&quot;] (close)&#45;&gt;[root] null_resource.test (expand) -->
<g id="edge27" class="edge">
<title>[root] provider[&quot;registry.terraform.io/hashicorp/null&quot;] (close)&#45;&gt;[root] null_resource.test (expand)</title>
<path fill="none" stroke="black" d="M1062.45,-431.7C1070.32,-423.22 1079.94,-412.86 1088.55,-403.58"/>
<polygon fill="black" stroke="black" points="1091.26,-405.81 1095.5,-396.1 1086.13,-401.05 1091.26,-405.81"/>
</g>
<!-- [root] root -->
<g id="node22" class="node">
<title>[root] root</title>
<ellipse fill="none" stroke="black" cx="1018.38" cy="-594" rx="58.49" ry="18"/>
<text text-anchor="middle" x="1018.38" y="-590.3" font-family="Times,serif" font-size="14.00">[root] root</text>
</g>
<!-- [root] root&#45;&gt;[root] provider[&quot;registry.terraform.io/hashicorp/aws&quot;] (close) -->
<g id="edge29" class="edge">
<title>[root] root&#45;&gt;[root] provider[&quot;registry.terraform.io/hashicorp/aws&quot;] (close)</title>
<path fill="none" stroke="black" d="M970.72,-583.41C917.07,-572.62 828.66,-554.84 761.61,-541.35"/>
<polygon fill="black" stroke="black" points="761.96,-537.85 751.47,-539.31 760.58,-544.71 761.96,-537.85"/>
</g>
<!-- [root] root&#45;&gt;[root] provider[&quot;registry.terraform.io/hashicorp/null&quot;] (close) -->
<g id="edge30" class="edge">
<title>[root] root&#45;&gt;[root] provider[&quot;registry.terraform.io/hashicorp/null&quot;] (close)</title>
<path fill="none" stroke="black" d="M1021.76,-575.87C1026.55,-551.56 1035.38,-506.82 1041.06,-478.01"/>
<polygon fill="black" stroke="black" points="1044.49,-478.68 1042.99,-468.19 1037.62,-477.32 1044.49,-478.68"/>
</g>
<!-- [root] output.testout (expand) -->
<g id="node23" class="node">
<title>[root] output.testout (expand)</title>
<ellipse fill="none" stroke="black" cx="1195.38" cy="-522" rx="149.47" ry="18"/>
<text text-anchor="middle" x="1195.38" y="-518.3" font-family="Times,serif" font-size="14.00">[root] output.testout (expand)</text>
</g>
<!-- [root] root&#45;&gt;[root] output.testout (expand) -->
<g id="edge28" class="edge">
<title>[root] root&#45;&gt;[root] output.testout (expand)</title>
<path fill="none" stroke="black" d="M1052.93,-579.34C1078.96,-569.04 1115.06,-554.76 1144.41,-543.16"/>
<polygon fill="black" stroke="black" points="1146.07,-546.27 1154.08,-539.33 1143.49,-539.76 1146.07,-546.27"/>
</g>
</g>
</svg>
